<svg width="30" height="24" viewBox="0 0 30 24" fill="none" xmlns="http://www.w3.org/2000/svg">
<path d="M29.8661 5.00895C29.7766 4.36171 29.643 3.66938 29.4643 2.93271C29.2857 2.19628 29.0209 1.5712 28.6693 1.05765C28.3177 0.544337 27.924 0.287504 27.4889 0.287504C27.4388 0.0698407 27.1959 0.0949375 26.7605 0.362912C26.3252 0.630828 26.1214 0.72025 26.1497 0.630828C26.1774 0.541464 26.0264 0.652993 25.6973 0.965532C25.3681 1.27807 25.2037 1.43428 25.2037 1.43428L24.7097 1.92801C24.2746 2.34106 23.6413 2.65623 22.8097 2.87384C21.9782 3.09185 21.066 3.22543 20.0726 3.27574C19.0793 3.32611 18.0832 3.35965 17.0843 3.37625C16.0854 3.39284 15.0836 3.44321 14.0792 3.52683C13.0747 3.61062 12.2655 3.75288 11.6518 3.95377C10.4351 4.3555 9.29676 4.88857 8.23647 5.5527C7.17613 6.21677 6.22479 6.99249 5.38211 7.87986C4.53949 8.76711 3.8753 9.79673 3.38996 10.9687C2.90467 12.1402 2.66174 13.3682 2.66174 14.6516C2.66174 15.2432 2.71187 15.8235 2.81232 16.3928C2.83466 16.5044 2.92385 16.75 3.08029 17.1294C3.23662 17.5091 3.31467 17.721 3.31467 17.7659C3.31467 17.9776 3.14169 18.246 2.79561 18.5692C2.44959 18.8929 2.07026 19.2055 1.65722 19.5067C1.24429 19.8079 0.864905 20.1735 0.518826 20.6031C0.173098 21.0331 0 21.4433 0 21.8338C0 21.9121 0.00820927 21.9871 0.0250969 22.0599C0.0419845 22.1326 0.0588135 22.1854 0.0754666 22.2187C0.0921197 22.2524 0.122963 22.308 0.167469 22.3858C0.212327 22.4639 0.245516 22.5257 0.267974 22.5701C0.457784 22.8936 0.608424 23.1282 0.719953 23.2732C0.831481 23.4182 1.0044 23.552 1.2389 23.675C1.47309 23.7976 1.75796 23.859 2.09266 23.859C2.41651 23.859 2.75122 23.6804 3.0973 23.3236C3.44302 22.9666 3.73615 22.5755 3.9761 22.1518C4.21593 21.7277 4.46725 21.337 4.72942 20.9799C4.99158 20.6229 5.21212 20.4443 5.39061 20.4443C5.64727 20.4443 6.18293 20.6509 6.99775 21.0639C7.81246 21.4771 8.30361 21.7113 8.47102 21.7673C10.0111 22.2918 11.607 22.5541 13.259 22.5541C15.7592 22.5541 18.203 21.9509 20.5917 20.7456C23.0361 19.5292 25.0308 18.0338 26.5767 16.2591C28.1227 14.4842 29.1521 12.3473 29.6656 9.84686C29.8884 8.75309 29.9999 7.67615 29.9999 6.6158C30 6.19168 29.9554 5.65596 29.8661 5.00895ZM21.1102 10.6839C20.8981 10.896 20.6467 11.0021 20.3565 11.0021C18.3253 11.0021 16.576 11.2923 15.1083 11.8725C13.6409 12.4528 12.1425 13.435 10.6134 14.8189C10.3905 15.031 10.0165 15.3991 9.4919 15.9238C8.96739 16.4485 8.55429 16.8446 8.25313 17.1124C8.01863 17.3245 7.76761 17.4306 7.49963 17.4306C7.20926 17.4306 6.95823 17.3245 6.74608 17.1124C6.53399 16.9009 6.42803 16.6492 6.42803 16.359C6.42803 16.0911 6.53399 15.8405 6.74608 15.6057C8.10765 14.0989 9.42189 12.874 10.6887 11.9311C11.9555 10.9881 13.4037 10.2404 15.0332 9.68778C16.6624 9.13523 18.437 8.85905 20.3565 8.85905C20.6467 8.85905 20.8981 8.96513 21.1102 9.1771C21.3221 9.38943 21.4283 9.64052 21.4283 9.9306C21.4282 10.2207 21.3225 10.4719 21.1102 10.6839Z" fill="#27AE60"/>
</svg>
